<svg width="54" height="18" viewBox="0 0 54 18" fill="none" xmlns="http://www.w3.org/2000/svg">
<g clip-path="url(#clip0_1293_3)">
<path fill-rule="evenodd" clip-rule="evenodd" d="M53.487 16.752H53.591L53.534 16.475L53.458 16.109C53.264 15.177 53.068 14.246 52.873 13.314L52.289 10.518C52.121 9.72001 51.955 8.91901 51.789 8.11901L51.287 5.72001L50.177 0.390011C50.159 0.315011 50.136 0.286011 50.055 0.286011H46.542C46.443 0.286011 46.339 0.292011 46.241 0.309011C45.494 0.431011 44.985 0.847011 44.695 1.54201L41.533 9.09401L38.37 16.647C38.3582 16.6826 38.3448 16.7176 38.33 16.752H42.691C42.761 16.752 42.791 16.728 42.814 16.665C43.091 15.901 43.369 15.137 43.641 14.373C43.658 14.315 43.687 14.292 43.751 14.292H49.052C49.122 14.292 49.151 14.315 49.162 14.379L49.372 15.377C49.461 15.8 49.55 16.224 49.637 16.647C49.654 16.734 49.689 16.752 49.77 16.752H53.487ZM47.16 4.76001C47.588 6.80801 48.017 8.85701 48.445 10.924C47.258 10.924 46.084 10.924 44.897 10.929C45.644 8.86301 46.384 6.81401 47.131 4.75901H47.16V4.76001Z" fill="white"/>
<path d="M0.871972 0.76002C0.906972 0.59802 0.935972 0.448021 0.969972 0.29202H8.15297C9.17697 0.29202 9.96397 0.92802 10.167 1.92902C10.364 2.93602 10.549 3.94402 10.74 4.95102C10.942 6.03902 11.15 7.12702 11.353 8.21502C11.55 9.27402 11.753 10.333 11.949 11.386L11.973 11.502C12.042 11.322 12.106 11.166 12.169 11.01C13.569 7.47402 14.965 3.93802 16.359 0.407021C16.394 0.321021 16.435 0.29202 16.527 0.29202C17.934 0.29702 19.34 0.29202 20.747 0.29702H20.868C20.851 0.33702 20.845 0.367021 20.833 0.396021C18.559 5.82402 16.284 11.247 14.01 16.676C13.987 16.74 13.958 16.769 13.888 16.763H9.55997C9.53097 16.763 9.50797 16.763 9.47297 16.757C9.37497 16.369 9.27097 15.987 9.17297 15.6L6.47997 5.18202L5.97697 3.26602C5.84297 2.77402 5.54797 2.42702 5.10297 2.19002C4.43245 1.83925 3.72864 1.55618 3.00197 1.34502C2.31897 1.14202 1.62397 0.97502 0.941972 0.78902C0.922972 0.77202 0.900972 0.76602 0.871972 0.76002ZM38.566 4.19802C38.1099 3.99197 37.6376 3.82374 37.154 3.69502C36.3994 3.4938 35.6195 3.40385 34.839 3.42802C34.319 3.44602 33.809 3.52702 33.34 3.77602C33.033 3.93802 32.779 4.15202 32.646 4.48202C32.484 4.87502 32.565 5.22202 32.831 5.54102C33.074 5.83102 33.387 6.04402 33.711 6.22402C34.307 6.55902 34.909 6.87202 35.511 7.20202C36.182 7.57202 36.824 7.98902 37.363 8.54502C37.941 9.13502 38.329 9.82402 38.468 10.645C38.538 11.068 38.543 11.491 38.497 11.919C38.4341 12.6095 38.2292 13.2795 37.895 13.887C37.38 14.807 36.633 15.478 35.719 15.982C34.943 16.41 34.11 16.67 33.236 16.832C32.443 16.977 31.645 17.035 30.84 17.012C29.555 16.972 28.294 16.798 27.067 16.404C26.835 16.329 26.615 16.242 26.377 16.155C26.638 14.951 26.893 13.753 27.147 12.55C27.194 12.567 27.229 12.584 27.263 12.602C27.871 12.892 28.484 13.152 29.138 13.319C29.674 13.4588 30.2228 13.5443 30.776 13.574C31.205 13.597 31.627 13.609 32.05 13.551C32.611 13.476 33.144 13.331 33.59 12.961C34.023 12.607 34.185 12.058 34.012 11.566C33.931 11.3495 33.7977 11.1565 33.624 11.004C33.3197 10.7274 32.9788 10.4939 32.611 10.31C32.113 10.044 31.604 9.79502 31.106 9.52302C30.383 9.12902 29.711 8.65502 29.156 8.03502C28.664 7.48502 28.316 6.86002 28.189 6.13102C28.074 5.47702 28.131 4.82902 28.299 4.19202C28.606 3.06402 29.272 2.17802 30.198 1.49002C31.048 0.859021 32.009 0.471021 33.039 0.240021C33.9584 0.0401419 34.9004 -0.036198 35.84 0.0130205C36.998 0.0650205 38.12 0.30802 39.209 0.69602C39.284 0.72502 39.296 0.74802 39.284 0.829021C39.047 1.92902 38.81 3.02902 38.578 4.12802C38.584 4.13902 38.578 4.16202 38.566 4.19802ZM19.201 16.746L19.375 15.918C19.71 14.355 20.04 12.798 20.376 11.236C20.717 9.65002 21.053 8.05902 21.395 6.47302L22.419 1.70302C22.512 1.26302 22.604 0.824021 22.703 0.384021C22.714 0.332021 22.72 0.286021 22.801 0.286021C24.167 0.292021 25.533 0.286021 26.899 0.286021H26.969C26.9415 0.435148 26.9102 0.583532 26.875 0.731021C26.325 3.30702 25.775 5.88802 25.22 8.46402C24.676 10.999 24.132 13.534 23.594 16.068C23.548 16.277 23.507 16.48 23.461 16.688C23.449 16.734 23.431 16.752 23.386 16.752H19.242C19.23 16.757 19.217 16.752 19.201 16.746Z" fill="white"/>
</g>
<defs>
<clipPath id="clip0_1293_3">
<rect width="54" height="18" fill="white"/>
</clipPath>
</defs>
</svg>
