<svg width="30" height="18" viewBox="0 0 30 18" fill="none" xmlns="http://www.w3.org/2000/svg">
<g clip-path="url(#clip0_1293_7)">
<path d="M10.625 1.92499H18.5V16.075H10.625V1.92499Z" fill="#D9D9D9"/>
<path d="M11.125 9C11.1253 7.63876 11.4336 6.29522 12.0267 5.06999C12.6198 3.84476 13.4825 2.7696 14.55 1.925C12.9695 0.676845 11.014 -0.00141528 9 2.2173e-06C4.025 2.2173e-06 0 4.025 0 9C0 13.975 4.025 18 9 18C11.1 18 13.025 17.275 14.55 16.075C13.4804 15.2323 12.6162 14.1575 12.0229 12.9319C11.4295 11.7062 11.1225 10.3617 11.125 9Z" fill="#F1F1F1"/>
<path d="M29.125 9C29.125 13.975 25.1 18 20.125 18C18.025 18 16.1 17.275 14.575 16.075C15.6467 15.2342 16.5123 14.1598 17.1059 12.9337C17.6994 11.7076 18.0052 10.3622 18 9C17.9997 7.63876 17.6915 6.29522 17.0983 5.06999C16.5052 3.84476 15.6426 2.7696 14.575 1.925C16.1556 0.676845 18.1111 -0.00141528 20.125 2.2173e-06C25.1 2.2173e-06 29.125 4.05 29.125 9Z" fill="white"/>
</g>
<defs>
<clipPath id="clip0_1293_7">
<rect width="30" height="18" fill="white"/>
</clipPath>
</defs>
</svg>
