<svg width="20" height="18" viewBox="0 0 20 18" fill="none" xmlns="http://www.w3.org/2000/svg">
<g clip-path="url(#clip0_1293_21)">
<path fill-rule="evenodd" clip-rule="evenodd" d="M7.80997 17.73C12.83 18.933 17.912 15.999 19.163 11.177C20.415 6.35603 17.361 1.47103 12.342 0.270028C7.32397 -0.932972 2.23997 2.00203 0.989973 6.82403C-0.262027 11.644 2.79297 16.529 7.80997 17.731V17.73ZM12.147 5.44703C13.445 5.87703 14.394 6.52003 14.207 7.71703C14.072 8.59403 13.567 9.01903 12.895 9.16703C13.817 9.62903 14.287 10.337 13.839 11.562C13.285 13.085 11.967 13.214 10.214 12.895L9.78897 14.533L8.76097 14.287L9.18097 12.671C8.90694 12.6059 8.63359 12.5379 8.36097 12.467L7.94097 14.09L6.91397 13.844L7.33897 12.204C7.24259 12.1799 7.14626 12.1555 7.04997 12.131L6.60597 12.021L5.26897 11.701L5.77897 10.571C5.77897 10.571 6.53597 10.765 6.52597 10.751C6.81697 10.819 6.94597 10.637 6.99697 10.516L7.66897 7.92603L7.74297 7.94403L7.77797 7.95303C7.74305 7.93976 7.70731 7.92874 7.67097 7.92003L8.15097 6.07203C8.16297 5.86203 8.08797 5.59703 7.67097 5.49703C7.68797 5.48703 6.92497 5.31903 6.92497 5.31903L7.19797 4.26403L8.61597 4.60403L8.61497 4.60903C8.82797 4.66003 9.04697 4.70903 9.27097 4.75803L9.69197 3.13603L10.72 3.38203L10.307 4.97203C10.583 5.03203 10.86 5.09303 11.13 5.15803L11.54 3.57803L12.568 3.82503L12.147 5.44703ZM8.89697 11.328C9.73497 11.541 11.567 12.006 11.859 10.881C12.158 9.73103 10.38 9.34803 9.51297 9.16103L9.25997 9.10503L8.69597 11.278L8.89597 11.328H8.89697ZM12.177 7.70003C11.911 8.72303 10.385 8.33203 9.68697 8.15303L9.51697 8.11003L10.029 6.13903C10.088 6.15303 10.159 6.16803 10.241 6.18503C10.965 6.33903 12.448 6.65503 12.176 7.70003H12.177Z" fill="white"/>
</g>
<defs>
<clipPath id="clip0_1293_21">
<rect width="20" height="18" fill="white"/>
</clipPath>
</defs>
</svg>
