<svg width="59" height="18" viewBox="0 0 59 18" fill="none" xmlns="http://www.w3.org/2000/svg">
<g clip-path="url(#clip0_1293_44)">
<mask id="mask0_1293_44" style="mask-type:luminance" maskUnits="userSpaceOnUse" x="0" y="0" width="59" height="18">
<path d="M0.485992 0H58.486V18H0.485992V0Z" fill="white"/>
</mask>
<g mask="url(#mask0_1293_44)">
<path fill-rule="evenodd" clip-rule="evenodd" d="M42.068 4.666C43.381 4.666 44.444 3.759 44.444 2.64C44.444 1.52 43.38 0.612 42.068 0.612C40.758 0.612 39.694 1.52 39.694 2.64C39.694 3.759 40.757 4.666 42.068 4.666ZM23.87 5.761C23.763 5.991 22.991 7.851 21.125 9.779V1.535L16.152 2.373V17.317H21.125V12.697C22.565 14.542 23.276 17.317 23.276 17.317H29.233C28.643 15.227 26.066 11.372 26.066 11.372C28.379 8.869 29.396 6.202 29.557 5.761H23.87ZM36.943 5.605C32.489 5.727 30.228 7.432 30.228 10.822V17.317H35.088V12.021C35.088 9.991 35.399 9.121 38.222 9.038V5.664C37.747 5.578 36.943 5.605 36.943 5.605ZM7.814 7.406C7.204 7.372 5.794 7.294 5.794 6.211C5.794 4.903 7.824 4.903 8.586 4.903C9.925 4.903 11.659 5.241 12.897 5.557C12.897 5.557 13.587 5.765 14.176 5.977L14.23 5.99V2.41L14.155 2.39C12.694 1.954 10.995 1.535 7.844 1.535C2.412 1.535 0.487 4.235 0.487 6.549C0.487 7.883 1.157 11.022 7.378 11.384C7.905 11.412 9.305 11.481 9.305 12.6C9.305 13.525 8.159 14.07 6.232 14.07C4.12 14.07 2.071 13.61 0.825999 13.174V16.862C2.689 17.279 4.79 17.487 7.251 17.487C12.563 17.487 14.941 14.932 14.941 12.399C14.941 9.527 12.28 7.661 7.814 7.406ZM39.66 17.317H44.48V5.774H39.66V17.317ZM53.555 2.271V17.317H58.375V1.535L53.555 2.271ZM46.521 2.271L51.337 1.535V17.317H46.521V2.271Z" fill="white"/>
</g>
</g>
<defs>
<clipPath id="clip0_1293_44">
<rect width="59" height="18" fill="white"/>
</clipPath>
</defs>
</svg>
