<svg width="91" height="25" viewBox="0 0 91 25" fill="none" xmlns="http://www.w3.org/2000/svg">
<path fill-rule="evenodd" clip-rule="evenodd" d="M59.465 1.497C61.598 1.497 63.249 1.993 64.33 2.972C65.353 3.893 65.923 5.237 65.938 6.772C65.938 8.35 65.47 9.636 64.535 10.6C63.337 11.842 61.452 12.529 59.231 12.529C58.88 12.529 58.529 12.514 58.193 12.485V18.739H54.905V1.891L55.417 1.803C56.7556 1.5928 58.11 1.49047 59.465 1.497ZM59.275 9.621C60.531 9.621 62.635 9.271 62.635 6.874C62.635 4.799 60.925 4.361 59.523 4.361C58.968 4.361 58.529 4.375 58.208 4.419V9.563C58.5 9.606 58.851 9.621 59.275 9.621ZM1 18.74L6.845 1.614H10.177L16.037 18.74H12.529L10.834 13.743H6.085L4.434 18.74H1ZM6.933 10.893H10L8.73 7.167C8.666 6.993 8.613 6.824 8.561 6.657C8.531 6.559 8.5 6.461 8.467 6.363C8.412 6.549 8.35 6.735 8.285 6.926L8.219 7.123L6.933 10.893Z" fill="white"/>
<path d="M20.055 9.563C20.055 10.016 20.23 10.308 21.808 10.936C23.255 11.476 25.198 12.486 25.198 14.926C25.198 17.351 23.24 18.988 20.332 18.988C19.061 18.988 17.775 18.666 16.811 18.096L16.387 17.848L17.264 15.086L17.936 15.481C18.491 15.817 19.47 16.197 20.376 16.197C20.961 16.197 21.94 16.065 21.94 15.13C21.94 14.633 21.808 14.224 20.245 13.64C18.666 13.07 16.796 11.944 16.796 9.826C16.796 7.516 18.71 5.851 21.356 5.851C22.539 5.851 23.708 6.143 24.482 6.655L24.892 6.918L24 9.636L23.328 9.212C22.7268 8.8375 22.0343 8.63515 21.326 8.627C20.536 8.627 20.055 8.978 20.055 9.563ZM30.356 3.133L27.083 4.127V6.085H25.315V8.905H27.083V14.502C27.083 16.065 27.39 17.176 28.048 17.922C28.691 18.608 29.64 19.002 30.751 19.002C31.745 19.002 32.461 18.798 32.797 18.681L33.235 18.535L33.06 15.7L32.3 15.92C32.08 15.978 31.818 16.036 31.277 16.036C30.882 16.036 30.342 16.036 30.342 14.443V8.905H33.308V6.085H30.356V3.133ZM40.702 5.88L41.302 5.968L41.316 9.256L40.556 9.096C40.41 9.066 40.249 9.066 39.986 9.066C38.876 9.066 38.057 9.88499 37.809 11.2C37.779 11.419 37.75 11.74 37.75 12.047V18.74H34.433V10.265C34.433 8.832 34.389 7.722 34.331 6.743L34.287 6.085H37.356L37.4 7.005C38.13 6.261 39.08 5.837 40.118 5.837C40.351 5.837 40.527 5.851 40.702 5.88Z" fill="white"/>
<path fill-rule="evenodd" clip-rule="evenodd" d="M47.336 5.85101C43.639 5.85101 41.053 8.58401 41.053 12.514C41.053 16.343 43.551 19.002 47.146 19.002C50.186 19.002 53.444 16.912 53.444 12.324C53.459 8.51101 50.945 5.85101 47.336 5.85101ZM50.098 12.398C50.098 14.604 48.9 16.211 47.263 16.211C45.626 16.211 44.443 14.619 44.443 12.456C44.443 11.053 45.042 8.67101 47.307 8.67101C49.513 8.64201 50.098 11.097 50.098 12.398ZM76.006 15.378V11.112C76.006 7.70701 74.238 5.85201 71.052 5.85201C69.576 5.85201 68.027 6.26001 66.961 6.93201L66.537 7.19501L67.428 9.82501L68.1 9.37301C68.787 8.90501 69.78 8.62701 70.745 8.62701C71.417 8.61301 71.9 8.77401 72.221 9.08001C72.484 9.34301 72.645 9.73801 72.703 10.235C70.117 10.308 68.232 10.922 67.063 12.076C66.259 12.88 65.85 13.888 65.85 15.101C65.85 17.044 67.253 19.002 69.97 19.002C71.125 19.002 72.207 18.637 73.054 17.994L73.142 18.754H76.283L76.166 18.038C76.064 17.337 76.006 16.445 76.006 15.378ZM70.482 16.226C69.985 16.226 69.167 16.051 69.167 14.867C69.167 14.414 69.299 14.049 69.591 13.771C69.971 13.391 70.833 12.953 72.761 12.923V14.283C72.761 14.385 72.747 14.56 72.703 14.735C72.469 15.422 71.753 16.225 70.483 16.225L70.482 16.226Z" fill="white"/>
<path d="M82.727 13.202L85.138 6.085H88.645L85.212 15.058C83.809 18.74 82.742 21.005 81.135 22.437C79.79 23.562 78.621 23.84 78.285 23.898L77.745 24L76.897 21.166L77.482 20.976C77.759 20.903 78.432 20.654 79.089 20.084L79.104 20.07C79.688 19.602 80.273 18.813 80.667 17.98L80.69 17.922C80.716 17.855 80.747 17.776 80.77 17.732C80.77 17.702 80.74 17.615 80.667 17.469L80.653 17.439L76.123 6.085H79.732L82.362 13.231C82.435 13.391 82.494 13.567 82.552 13.742C82.582 13.655 82.611 13.563 82.64 13.472L82.727 13.202ZM13.1 6.319C15.233 4.142 18.856 2.841 22.787 2.841C24.321 2.841 25.812 3.031 27.229 3.426L27.346 3.455L29.86 2.695L28.734 2.257C26.586 1.438 24.117 1 21.574 1C17.877 1 14.429 1.891 11.872 3.513L11.594 3.689L12.661 6.8L13.099 6.318L13.1 6.319Z" fill="white"/>
</svg>
