<svg width="35" height="35" viewBox="0 0 35 35" fill="none" xmlns="http://www.w3.org/2000/svg">
<g clip-path="url(#clip0_985_24)">
<path opacity="0.5" fill-rule="evenodd" clip-rule="evenodd" d="M35 17.5C35 27.165 27.165 35 17.5 35C7.83502 35 0 27.165 0 17.5C0 7.83502 7.83502 0 17.5 0C27.165 0 35 7.83502 35 17.5ZM22.8666 18.4333H25.3166V20.7667H27.0666V18.4415L29.5264 18.4204L29.5269 16.6833H27.0666V14.2333H25.3166V16.6833H22.8666V18.4333ZM9.21665 12.9622L8.06572 12.8917L9.2335 10.9667H11.4333V24.6167H9.21665V12.9622ZM13.7643 22.4583C14.315 23.5792 15.4904 24.4868 16.6987 24.7243C18.2361 25.0264 19.6828 24.6848 20.719 23.775C22.3953 22.3032 22.4723 19.3577 20.8723 17.9122L20.4015 17.4868L20.8306 17.0119C21.5499 16.2157 21.7338 15.653 21.6797 14.4149C21.6392 13.4893 21.5856 13.2637 21.2753 12.7115C20.5111 11.3519 19.1778 10.6603 17.5076 10.7569C15.3543 10.8816 13.921 12.2736 13.7929 14.3648C13.7239 15.4912 13.9554 16.2338 14.6057 16.9727L15.0821 17.5139L14.8036 17.7083C14.3366 18.0343 13.9797 18.4658 13.7213 19.0167C13.5217 19.4421 13.4753 19.7629 13.4764 20.7083C13.4775 21.7095 13.5184 21.9577 13.7643 22.4583ZM18.9926 18.896C20.1966 19.7681 20.1633 21.5721 18.927 22.4455C17.1611 23.6932 14.8385 21.746 15.736 19.7702C16.3145 18.4965 17.8662 18.08 18.9926 18.896ZM19.7141 14.6755C19.7178 15.223 19.3209 15.9268 18.8143 16.271C17.9798 16.8381 16.6937 16.5902 16.1573 15.7589C15.5776 14.8606 15.6838 13.9478 16.4482 13.2572C16.7026 13.0273 17.0465 12.8052 17.2124 12.7636C17.7054 12.6398 18.5027 12.7837 18.903 13.0688C19.335 13.3764 19.7104 14.12 19.7141 14.6755Z" fill="white"/>
</g>
<defs>
<clipPath id="clip0_985_24">
<rect width="35" height="35" fill="white"/>
</clipPath>
</defs>
</svg>
