<svg width="140" height="60" viewBox="0 0 140 60" fill="none" xmlns="http://www.w3.org/2000/svg">
<path d="M24.5049 23.7912C24.1214 23.0072 23.5866 22.3069 22.9312 21.7306C22.2759 21.1543 21.5129 20.7134 20.6863 20.4333C19.8598 20.1532 18.986 20.0395 18.1152 20.0987C17.2445 20.1579 16.3942 20.3889 15.6131 20.7782L4.66367 25.6283C4.01445 25.9146 3.42848 26.3269 2.93969 26.8413C2.4509 27.3556 2.06901 27.9618 1.81613 28.6248C1.56324 29.2877 1.44439 29.9943 1.46646 30.7035C1.48853 31.4127 1.65108 32.1105 1.94469 32.7565C3.19395 35.4754 6.35385 36.7247 9.07284 35.4754L10.5426 34.8141L8.11752 47.6741C7.82518 49.3892 8.22612 51.1502 9.23216 52.5697C10.2382 53.9892 11.7669 54.9509 13.482 55.2432C15.1971 55.5356 16.9581 55.1346 18.3776 54.1286C19.797 53.1225 20.7587 51.5938 21.0511 49.8787L25.0193 28.2003L25.0928 27.6859C25.3133 26.2897 25.0928 24.9669 24.5049 23.7912Z" fill="#288FF2"/>
<path d="M76.0926 20.0432H72.9327C71.2425 20.0432 69.6258 20.8516 68.9645 22.4683L60.3666 42.3095L59.6317 23.8645C59.3378 20.9985 57.5741 20.0432 55.2961 20.0432H50.7399C49.0497 20.0432 47.433 20.925 46.7717 22.4683L38.2473 42.3095H38.1003L37.5124 23.8645C37.292 21.5864 35.4548 20.0432 33.1767 20.0432H28.9145L27.6653 20.1902C29.3555 22.6152 30.0168 25.3342 29.5024 28.2002L26.71 42.6769L28.0327 51.6422C28.4001 53.7733 30.1638 55.3165 32.3684 55.3165H39.0556C40.7458 55.3165 42.3625 54.2877 43.0239 52.671L50.8869 34.1525L51.8422 51.4218C52.0627 53.6264 53.8998 55.3165 56.1779 55.3165H62.7916C64.4818 55.3165 65.9515 54.4347 66.6864 52.8915L79.9874 26.1426C81.3836 23.2031 79.326 20.0432 76.0926 20.0432ZM94.1702 19.9697H89.3201C87.189 19.9697 85.4254 21.4394 85.0579 23.4971L80.0609 50.246C79.5465 52.8915 81.6041 55.3165 84.3231 55.3165H89.0997C91.2308 55.3165 92.9944 53.8468 93.3619 51.7892L98.4324 25.0403C98.9468 22.3948 96.8892 19.9697 94.1702 19.9697ZM135.616 22.4683C133.632 20.8516 130.913 20.0432 127.533 20.0432C122.756 20.0432 118.494 22.1743 114.673 26.4365L114.746 26.0691C115.261 23.4236 113.203 20.925 110.484 20.925H106.81C104.752 20.925 102.915 22.4683 102.548 24.5259L98.065 50.246C97.5506 52.8915 99.6082 55.3165 102.327 55.3165H107.251C109.308 55.3165 111.145 53.8468 111.513 51.7892L113.938 37.7534C114.526 34.8874 115.334 33.0503 116.216 32.2419C117.318 31.2866 118.715 30.7722 120.405 30.7722C122.977 30.7722 124.3 32.0949 124.3 34.8139L124.226 35.9897L124.153 37.092L121.874 50.246C121.36 52.8915 123.418 55.3165 126.137 55.3165H130.913C132.971 55.3165 134.808 53.8468 135.175 51.7892L138.262 34.6669C138.556 33.1972 138.629 31.801 138.629 30.4782C138.629 26.7304 137.6 24.0849 135.616 22.4683Z" fill="white"/>
<g clip-path="url(#clip0_549_2)">
<path d="M93 16C96.866 16 100 12.866 100 9C100 5.13401 96.866 2 93 2C89.134 2 86 5.13401 86 9C86 12.866 89.134 16 93 16Z" fill="#F0F0F0"/>
<path d="M92.9998 2C90.2245 2 87.8266 3.61506 86.6943 5.95653H99.3051C98.1729 3.61506 95.7749 2 92.9998 2V2Z" fill="#338AF3"/>
<path d="M92.9998 16C95.7749 16 98.1729 14.3849 99.3052 12.0435H86.6943C87.8266 14.3849 90.2245 16 92.9998 16Z" fill="#338AF3"/>
<path d="M95.0926 9.00004L94.2377 9.40218L94.693 10.2301L93.7646 10.0525L93.647 10.9903L93.0004 10.3006L92.3538 10.9903L92.2362 10.0525L91.3079 10.2301L91.7631 9.40215L90.9082 9.00004L91.7631 8.59789L91.3079 7.76998L92.2362 7.94755L92.3538 7.00977L93.0004 7.69948L93.647 7.00977L93.7646 7.94755L94.693 7.76998L94.2377 8.59792L95.0926 9.00004Z" fill="#FFDA44"/>
</g>
<defs>
<clipPath id="clip0_549_2">
<rect width="14" height="14" fill="white" transform="translate(86 2)"/>
</clipPath>
</defs>
</svg>
